<?xml version="1.0" encoding="UTF-8"?>
<svg xmlns="http://www.w3.org/2000/svg" onmouseup="{ if(window.parent.document.onmouseup) window.parent.document.onmouseup(arguments[0]);}" viewBox="0 0 150 145" data-name="Layer 1" id="Layer_1"><defs><style>.cls-1,.cls-2{fill:none;stroke:#691c86;stroke-width:3.5px;}.cls-1{stroke-miterlimit:10;}.cls-2{stroke-linejoin:bevel;}</style></defs><polyline data-cppathid="10000" points="93.22 141.75 119.79 141.75 119.79 84.89" class="cls-1"/><polyline data-cppathid="10001" points="119.79 54.37 119.79 2.45 25.21 2.45 3.31 24.44 3.31 141.75 68.14 141.75" class="cls-1"/><polyline data-cppathid="10002" points="20.6 44 26.58 49.41 35.09 40.19" class="cls-1"/><polyline data-cppathid="10003" points="20.6 67.6 26.58 73.01 35.09 63.8" class="cls-1"/><polyline data-cppathid="10004" points="20.6 91.21 26.58 96.62 35.09 87.4" class="cls-1"/><line data-cppathid="10005" y2="45.38" x2="97.91" y1="45.38" x1="50.29" class="cls-1"/><line data-cppathid="10006" y2="69.83" x2="81.18" y1="69.83" x1="50.29" class="cls-1"/><line data-cppathid="10007" y2="95.57" x2="81.18" y1="95.57" x1="50.29" class="cls-1"/><path data-cppathid="10008" d="M93.22,130.57,78.16,142l2.22-18.77,52.5-91.73A7.39,7.39,0,0,1,143,28.76h0a7.39,7.39,0,0,1,2.74,10.09Z" class="cls-2"/><line data-cppathid="10009" y2="48.87" x2="139.97" y1="41.53" x1="127.14" class="cls-2"/><line data-cppathid="10010" y2="130.57" x2="93.22" y1="123.23" x1="80.38" class="cls-2"/><polyline data-cppathid="10011" points="4.8 25.04 25.21 25.04 25.21 2.45" class="cls-1"/></svg>