<?xml version="1.0" encoding="UTF-8"?>
<svg xmlns="http://www.w3.org/2000/svg" onmouseup="{ if(window.parent.document.onmouseup) window.parent.document.onmouseup(arguments[0]);}" viewBox="0 0 55 55" data-name="Layer 1" id="Layer_1"><defs><style>.cls-1{fill:none;stroke:#fff;stroke-miterlimit:10;stroke-width:2px;}</style></defs><path data-cppathid="10000" d="M22.3,24.26a9.11,9.11,0,1,1,6.09-.09" class="cls-1"/><path data-cppathid="10001" d="M27.38,26.31a2.41,2.41,0,0,1,2.26-2.47h0a2.31,2.31,0,0,1,2.24,2.38v4.9" class="cls-1"/><path data-cppathid="10002" d="M31.88,27.54A2.47,2.47,0,0,1,34.31,25h0a2.48,2.48,0,0,1,2.48,2.49v4.84" class="cls-1"/><path data-cppathid="10003" d="M36.79,29.58a2.19,2.19,0,0,1,2.3-2.08h0a2.2,2.2,0,0,1,2.2,2.19v8.19A10.62,10.62,0,0,1,30.67,48.5h-.12a10.74,10.74,0,0,1-9.45-5.64L14,30a2.47,2.47,0,0,1,1-3.33h0a2.48,2.48,0,0,1,3.28.85l4,6.82.63-.21V15.9a2.24,2.24,0,0,1,2.24-2.25h0a2.25,2.25,0,0,1,2.25,2.25v14" class="cls-1"/></svg>