<?xml version="1.0" encoding="UTF-8"?>
<svg xmlns="http://www.w3.org/2000/svg" onmouseup="{ if(window.parent.document.onmouseup) window.parent.document.onmouseup(arguments[0]);}" viewBox="0 0 55 55" data-name="Layer 1" id="Layer_1"><defs><style>.cls-1{fill:none;stroke:#fff;stroke-miterlimit:10;stroke-width:2px;}</style></defs><path data-cppathid="10000" d="M47.65,31.32V23.68l-4.51-.41a.1.1,0,0,1-.08-.06l-1.53-3.65a.11.11,0,0,1,0-.12L44.45,16l-5.4-5.4-3.58,3L31.74,12l-.42-4.64H23.68L23.26,12l-3.73,1.54-3.58-3L10.55,16l2.9,3.49a.11.11,0,0,1,0,.12l-1.55,3.7-4.57.42v7.64l4.65.42a15.9,15.9,0,0,0,1.53,3.74l-3,3.57,5.4,5.4,3.55-3a16,16,0,0,0,3.76,1.57h0l.42,4.58h7.64l.42-4.58h0a16.23,16.23,0,0,0,3.77-1.57l3.54,3,5.4-5.4-3-3.57A15.9,15.9,0,0,0,43,31.74ZM27.32,38.41A10.7,10.7,0,1,1,38,27.71,10.7,10.7,0,0,1,27.32,38.41Z" class="cls-1"/></svg>