<?xml version="1.0" encoding="UTF-8"?>
<svg xmlns="http://www.w3.org/2000/svg" onmouseup="{ if(window.parent.document.onmouseup) window.parent.document.onmouseup(arguments[0]);}" viewBox="0 0 740 512" data-name="Layer 1" id="Layer_1"><defs><style>.cls-1{fill:none;}.cls-2{fill:#165782;}</style></defs><title/><path data-cppathid="10000" d="M182.7-13.82a26.13,26.13,0,0,1-22.62-13.06l-48.43-83.89a26.1,26.1,0,0,1,0-26.12l48.43-83.88a26.11,26.11,0,0,1,22.62-13.06h96.86a26.08,26.08,0,0,1,22.62,13.06l48.44,83.88a26.15,26.15,0,0,1,0,26.12L302.18-26.88a26.11,26.11,0,0,1-22.62,13.06H182.7m220-246.89h-342v316h342v-316" class="cls-1"/><path data-cppathid="10001" d="M728.88,217.87,625.1,38.13A76.25,76.25,0,0,0,559.06,0H-1.09A76.25,76.25,0,0,1,65,38.13L168.72,217.87a76.27,76.27,0,0,1,0,76.26L65,473.87A76.25,76.25,0,0,1-1.09,512H559.06a76.25,76.25,0,0,0,66-38.13L728.88,294.13A76.27,76.27,0,0,0,728.88,217.87Z" class="cls-2"/></svg>